<svg width="66" height="72" viewBox="0 0 66 72" fill="none" xmlns="http://www.w3.org/2000/svg">
<g clip-path="url(#clip0_108_7)">
<path fill-rule="evenodd" clip-rule="evenodd" d="M33.0007 1.5C25.1666 1.50443 17.5894 4.53137 11.6239 10.0396C5.65842 15.5478 1.69373 23.178 0.438747 31.566C-0.816239 39.954 0.720298 48.5526 4.77364 55.8245C8.82699 63.0964 15.1328 68.5673 22.5636 71.2589C24.2029 71.5908 24.8204 70.4824 24.8204 69.54C24.8204 68.5975 24.7876 65.865 24.7767 62.8776C15.5963 65.0411 13.6565 58.6515 13.6565 58.6515C12.1592 54.5023 9.99525 53.4117 9.99525 53.4117C7.00072 51.1949 10.2193 51.2363 10.2193 51.2363C13.5363 51.4912 15.2794 54.9291 15.2794 54.9291C18.2193 60.4 23.0007 58.8174 24.8805 57.8928C25.1756 55.5752 26.0335 53.9985 26.9789 53.1035C19.6455 52.2025 11.9406 49.1321 11.9406 35.4163C11.8952 31.8591 13.1121 28.4192 15.3395 25.808C15.0007 24.9071 13.8696 21.2677 15.6619 16.3243C15.6619 16.3243 18.4324 15.3641 24.7384 19.9933C30.1473 18.3889 35.8541 18.3889 41.263 19.9933C47.5636 15.3641 50.3286 16.3243 50.3286 16.3243C52.1264 21.2558 50.9953 24.8952 50.6565 25.808C52.891 28.4196 54.1104 31.8655 54.0608 35.4281C54.0608 49.1736 46.3395 52.2025 38.9952 53.0857C40.1756 54.2 41.2302 56.3754 41.2302 59.7184C41.2302 64.5077 41.192 68.3604 41.192 69.54C41.192 70.4943 41.7876 71.6086 43.4597 71.2589C50.8914 68.567 57.1978 63.0951 61.2511 55.822C65.3043 48.5489 66.8401 39.9489 65.5837 31.5602C64.3272 23.1714 60.3606 15.5411 54.3931 10.0338C48.4257 4.52657 40.8467 1.50162 33.0116 1.5H33.0007Z" fill="#191717"/>
<path d="M12.4972 52.896C12.4262 53.0738 12.1639 53.1272 11.9508 53.0027C11.7376 52.8782 11.5792 52.6471 11.6557 52.4633C11.7322 52.2796 11.989 52.2321 12.2021 52.3566C12.4152 52.4811 12.5792 52.7182 12.4972 52.896Z" fill="#191717"/>
<path d="M13.836 54.5142C13.7229 54.576 13.5934 54.5933 13.4698 54.563C13.3462 54.5327 13.2361 54.4568 13.1585 54.3482C12.9453 54.0992 12.9016 53.7555 13.0655 53.6014C13.2295 53.4472 13.5246 53.5184 13.7377 53.7673C13.9508 54.0163 14 54.36 13.836 54.5142Z" fill="#191717"/>
<path d="M15.1367 56.5709C14.9345 56.7251 14.5902 56.571 14.3989 56.2627C14.3461 56.2074 14.304 56.1411 14.2753 56.0678C14.2465 55.9945 14.2317 55.9156 14.2317 55.836C14.2317 55.7563 14.2465 55.6774 14.2753 55.6041C14.304 55.5308 14.3461 55.4645 14.3989 55.4092C14.6011 55.261 14.9454 55.4092 15.1367 55.7115C15.3279 56.0138 15.3334 56.4168 15.1367 56.5709Z" fill="#191717"/>
<path d="M16.9016 58.5625C16.7213 58.7818 16.3552 58.7226 16.0547 58.4262C15.7541 58.1298 15.6831 57.7268 15.8634 57.5134C16.0437 57.3 16.4098 57.3593 16.7213 57.6497C17.0328 57.9402 17.0929 58.3491 16.9016 58.5625Z" fill="#191717"/>
<path d="M19.377 59.7243C19.295 60.0029 18.9234 60.1273 18.5518 60.0088C18.1803 59.8903 17.9344 59.5583 18.0054 59.2738C18.0764 58.9893 18.4535 58.8589 18.8305 58.9893C19.2076 59.1197 19.448 59.4339 19.377 59.7243Z" fill="#191717"/>
<path d="M22.0765 59.9258C22.0765 60.2162 21.7705 60.4652 21.3771 60.4711C20.9837 60.477 20.6613 60.2399 20.6613 59.9495C20.6613 59.6591 20.9672 59.4101 21.3607 59.4042C21.7541 59.3983 22.0765 59.6294 22.0765 59.9258Z" fill="#191717"/>
<path d="M24.5902 59.4694C24.6394 59.7598 24.3662 60.0621 23.9727 60.1333C23.5793 60.2044 23.235 60.0325 23.1858 59.748C23.1367 59.4635 23.4208 59.1553 23.8033 59.0782C24.1858 59.0012 24.541 59.179 24.5902 59.4694Z" fill="#191717"/>
</g>
<defs>
<clipPath id="clip0_108_7">
<rect width="66" height="72" fill="white"/>
</clipPath>
</defs>
</svg>
