<svg width="66" height="71" viewBox="0 0 66 71" fill="none" xmlns="http://www.w3.org/2000/svg">
<path d="M33 6.39277C41.8172 6.39277 42.8613 6.43437 46.3289 6.60078C49.5516 6.75332 51.2918 7.33574 52.452 7.82109C53.9859 8.45898 55.0945 9.23555 56.2418 10.4697C57.402 11.7178 58.1109 12.8965 58.7039 14.5467C59.1551 15.7947 59.6965 17.6807 59.8383 21.1336C59.993 24.8777 60.0316 26.001 60.0316 35.4723C60.0316 44.9574 59.993 46.0807 59.8383 49.8109C59.6965 53.2777 59.1551 55.1498 58.7039 56.3979C58.1109 58.048 57.3891 59.2406 56.2418 60.4748C55.0816 61.7229 53.9859 62.4855 52.452 63.1234C51.2918 63.6088 49.5387 64.1912 46.3289 64.3438C42.8484 64.5102 41.8043 64.5518 33 64.5518C24.1828 64.5518 23.1387 64.5102 19.6711 64.3438C16.4484 64.1912 14.7082 63.6088 13.548 63.1234C12.0141 62.4855 10.9055 61.709 9.7582 60.4748C8.59805 59.2268 7.88906 58.048 7.29609 56.3979C6.84492 55.1498 6.30352 53.2639 6.16172 49.8109C6.00703 46.0668 5.96836 44.9436 5.96836 35.4723C5.96836 25.9871 6.00703 24.8639 6.16172 21.1336C6.30352 17.6668 6.84492 15.7947 7.29609 14.5467C7.88906 12.8965 8.61094 11.7039 9.7582 10.4697C10.9184 9.22168 12.0141 8.45898 13.548 7.82109C14.7082 7.33574 16.4613 6.75332 19.6711 6.60078C23.1387 6.43437 24.1828 6.39277 33 6.39277ZM33 0C24.041 0 22.9195 0.0416016 19.4004 0.208008C15.8941 0.374414 13.4836 0.98457 11.3953 1.8582C9.2168 2.77344 7.37344 3.97988 5.54297 5.96289C3.69961 7.93203 2.57812 9.91504 1.72734 12.2447C0.915234 14.5051 0.348047 17.0844 0.193359 20.8562C0.0386719 24.6559 0 25.8623 0 35.5C0 45.1377 0.0386719 46.3441 0.193359 50.1299C0.348047 53.9018 0.915234 56.4949 1.72734 58.7414C2.57812 61.085 3.69961 63.068 5.54297 65.0371C7.37344 67.0062 9.2168 68.2266 11.3824 69.1279C13.4836 70.0016 15.8813 70.6117 19.3875 70.7781C22.9066 70.9445 24.0281 70.9861 32.9871 70.9861C41.9461 70.9861 43.0676 70.9445 46.5867 70.7781C50.093 70.6117 52.5035 70.0016 54.5918 69.1279C56.7574 68.2266 58.6008 67.0062 60.4313 65.0371C62.2617 63.068 63.3961 61.085 64.234 58.7553C65.0461 56.4949 65.6133 53.9156 65.768 50.1437C65.9227 46.358 65.9613 45.1516 65.9613 35.5139C65.9613 25.8762 65.9227 24.6697 65.768 20.884C65.6133 17.1121 65.0461 14.5189 64.234 12.2725C63.4219 9.91504 62.3004 7.93203 60.457 5.96289C58.6266 3.99375 56.7832 2.77344 54.6176 1.87207C52.5164 0.998437 50.1188 0.388281 46.6125 0.221875C43.0805 0.0416016 41.959 0 33 0Z" fill="#000100"/>
<path d="M33 17.2646C23.6414 17.2646 16.0488 25.4324 16.0488 35.5C16.0488 45.5676 23.6414 53.7354 33 53.7354C42.3586 53.7354 49.9512 45.5676 49.9512 35.5C49.9512 25.4324 42.3586 17.2646 33 17.2646ZM33 47.3287C26.9285 47.3287 22.0043 42.0314 22.0043 35.5C22.0043 28.9686 26.9285 23.6713 33 23.6713C39.0715 23.6713 43.9957 28.9686 43.9957 35.5C43.9957 42.0314 39.0715 47.3287 33 47.3287Z" fill="#000100"/>
<path d="M54.5789 16.5436C54.5789 18.901 52.8 20.8008 50.6215 20.8008C48.4301 20.8008 46.6641 18.8872 46.6641 16.5436C46.6641 14.1862 48.443 12.2864 50.6215 12.2864C52.8 12.2864 54.5789 14.2 54.5789 16.5436Z" fill="#000100"/>
</svg>
