<svg width="66" height="72" viewBox="0 0 66 72" fill="none" xmlns="http://www.w3.org/2000/svg">
<g clip-path="url(#clip0_108_5)">
<path d="M61.1279 0H4.87208C3.57993 0 2.34069 0.559972 1.427 1.55673C0.513308 2.55348 0 3.90537 0 5.315V66.685C0 68.0946 0.513308 69.4465 1.427 70.4433C2.34069 71.44 3.57993 72 4.87208 72H61.1279C62.4201 72 63.6593 71.44 64.573 70.4433C65.4867 69.4465 66 68.0946 66 66.685V5.315C66 3.90537 65.4867 2.55348 64.573 1.55673C63.6593 0.559972 62.4201 0 61.1279 0ZM19.6717 61.335H9.74875V26.95H19.6717V61.335ZM14.7033 22.185C13.5778 22.1781 12.4793 21.8076 11.5465 21.1203C10.6138 20.4329 9.88856 19.4596 9.46241 18.3231C9.03626 17.1865 8.92828 15.9378 9.15208 14.7344C9.37589 13.531 9.92145 12.4268 10.7199 11.5613C11.5184 10.6959 12.534 10.1078 13.6385 9.87138C14.7431 9.63496 15.8871 9.76078 16.9261 10.233C17.9652 10.7051 18.8527 11.5025 19.4768 12.5244C20.1008 13.5464 20.4334 14.7471 20.4325 15.975C20.4431 16.7971 20.3019 17.6131 20.0173 18.3744C19.7327 19.1357 19.3104 19.8267 18.7758 20.4062C18.2412 20.9857 17.6051 21.4418 16.9054 21.7474C16.2057 22.0531 15.4568 22.2019 14.7033 22.185ZM56.2467 61.365H46.3283V42.58C46.3283 37.04 44.1696 35.33 41.3829 35.33C38.4404 35.33 35.5529 37.75 35.5529 42.72V61.365H25.63V26.975H35.1725V31.74H35.3008C36.2588 29.625 39.6138 26.01 44.7333 26.01C50.27 26.01 56.2512 29.595 56.2512 40.095L56.2467 61.365Z" fill="#0A66C2"/>
</g>
<defs>
<clipPath id="clip0_108_5">
<rect width="66" height="72" fill="white"/>
</clipPath>
</defs>
</svg>
